<svg width="15" height="15" viewBox="0 0 15 15" fill="none" xmlns="http://www.w3.org/2000/svg">
<path d="M7.5 0.109375C3.48633 0.109375 0.234375 3.36133 0.234375 7.375C0.234375 11.3887 3.48633 14.6406 7.5 14.6406C11.5137 14.6406 14.7656 11.3887 14.7656 7.375C14.7656 3.36133 11.5137 0.109375 7.5 0.109375ZM10.1953 9.2793L9.60938 10.0117C9.52148 10.1289 9.375 10.2168 9.22852 10.2168C9.14062 10.2168 9.02344 10.1582 8.96484 10.0996L7.00195 8.63477C6.73828 8.45898 6.5625 8.04883 6.5625 7.72656V3.15625C6.5625 2.92188 6.76758 2.6875 7.03125 2.6875H7.96875C8.20312 2.6875 8.4375 2.92188 8.4375 3.15625V7.375L10.1367 8.63477C10.2246 8.72266 10.3125 8.86914 10.3125 8.98633C10.3125 9.10352 10.2539 9.2207 10.1953 9.2793Z" fill="#E11524"/>
</svg>
