<svg width="20" height="19" viewBox="0 0 20 19" fill="none" xmlns="http://www.w3.org/2000/svg">
<path d="M18.7188 7.28125L17.9453 6.47266C17.5938 6.15625 17.0664 6.15625 16.75 6.47266L16.5391 6.68359L12.5664 2.71094L12.7773 2.5C13.0938 2.18359 13.0938 1.65625 12.7773 1.30469L11.9688 0.53125C11.6523 0.179688 11.125 0.179688 10.7734 0.53125L6.41406 4.89062C6.0625 5.20703 6.0625 5.76953 6.41406 6.08594L7.1875 6.89453C7.53906 7.21094 8.06641 7.21094 8.38281 6.89453L8.59375 6.68359L10 8.05469L7.15234 10.9375L6.94141 10.7266C6.48438 10.2695 5.78125 10.2695 5.35938 10.7266L1.31641 14.7695C0.859375 15.1914 0.859375 15.8945 1.31641 16.3516L2.89844 17.9336C3.35547 18.3906 4.05859 18.3906 4.48047 17.9336L8.52344 13.8906C8.98047 13.4688 8.98047 12.7656 8.52344 12.3086L8.3125 12.0977L11.1953 9.25L12.5664 10.6562L12.3555 10.8672C12.0391 11.1836 12.0391 11.7109 12.3555 12.0625L13.1641 12.8359C13.4805 13.1875 14.043 13.1875 14.3594 12.8359L18.7188 8.47656C19.0703 8.125 19.0703 7.59766 18.7188 7.28125Z" fill="white"/>
</svg>
