<svg width="21" height="19" viewBox="0 0 21 19" fill="none" xmlns="http://www.w3.org/2000/svg">
<path d="M18.9375 10.8672L20.5898 3.55469C20.6953 3.02734 20.3086 2.5 19.7461 2.5H5.96484L5.64844 0.953125C5.54297 0.566406 5.19141 0.25 4.80469 0.25H1.21875C0.726562 0.25 0.375 0.636719 0.375 1.09375V1.65625C0.375 2.14844 0.726562 2.5 1.21875 2.5H3.64453L6.14062 14.5938C5.54297 14.9453 5.15625 15.5781 5.15625 16.2812C5.15625 17.3711 6.03516 18.25 7.125 18.25C8.17969 18.25 9.09375 17.3711 9.09375 16.2812C9.09375 15.7539 8.84766 15.2617 8.49609 14.875H15.8438C15.4922 15.2617 15.2812 15.7539 15.2812 16.2812C15.2812 17.3711 16.1602 18.25 17.25 18.25C18.3047 18.25 19.2188 17.3711 19.2188 16.2812C19.2188 15.5078 18.7617 14.8398 18.0938 14.5234L18.2695 13.6797C18.4102 13.1523 17.9883 12.625 17.4609 12.625H8.03906L7.79297 11.5H18.0938C18.4805 11.5 18.832 11.2539 18.9375 10.8672Z" fill="white"/>
</svg>
