<svg width="1675" height="352" viewBox="0 0 1675 352" fill="none" xmlns="http://www.w3.org/2000/svg">
<path d="M647.6 316.335C647.6 318.132 646.1 319.629 644.3 319.629C642.5 319.629 641 318.132 641 316.335C641 314.538 642.5 313.041 644.3 313.041C646.1 313.041 647.6 314.538 647.6 316.335Z" fill="url(#paint0_linear)" fill-opacity="0.6"/>
<path d="M19.1 119.875L11.5 119.975L11.3 112.388H7.5L7.59999 120.075L0 120.175V123.968L7.7 123.868L7.79999 131.455H11.7L11.5 123.868L19.2 123.669L19.1 119.875Z" fill="#4446ED" fill-opacity="0.5"/>
<path d="M239 28.6331L252.1 41.7104L265.2 28.6331L252.1 15.5557L239 28.6331ZM261.7 28.6331L252.1 38.2165L242.5 28.6331L252.1 19.0497L261.7 28.6331Z" fill="url(#paint1_linear)" fill-opacity="0.6"/>
<path d="M1549 333.077L1562.1 346.155L1575.2 333.077L1562.1 320L1549 333.077ZM1571.7 333.077L1562.1 342.661L1552.5 333.077L1562.1 323.494L1571.7 333.077Z" fill="url(#paint2_linear)" fill-opacity="0.6"/>
<path d="M368.9 34.8224L357.7 24.9395L346.5 34.8224L335 24.64L335.7 23.8414L346.5 33.5246L357.7 23.5419L368.9 33.5246L380.1 23.5419L391.6 33.8241L390.9 34.5229L380.1 24.9395L368.9 34.8224Z" fill="#9899F5"/>
<path d="M44.6 216.408C42.1 216.408 40 214.312 40 211.816C40 209.32 42.1 207.224 44.6 207.224C47.1 207.224 49.2 209.32 49.2 211.816C49.2 214.312 47.1 216.408 44.6 216.408ZM44.6 208.222C42.6 208.222 41 209.819 41 211.816C41 213.812 42.6 215.41 44.6 215.41C46.6 215.41 48.2 213.812 48.2 211.816C48.2 209.819 46.6 208.222 44.6 208.222Z" fill="url(#paint3_linear)" fill-opacity="0.6"/>
<path d="M452.8 33.1253C450.1 33.1253 448 30.9291 448 28.3336C448 25.6383 450.2 23.5419 452.8 23.5419C455.4 23.5419 457.6 25.7381 457.6 28.3336C457.6 31.0289 455.4 33.1253 452.8 33.1253ZM452.8 24.5402C450.7 24.5402 449 26.2372 449 28.3336C449 30.43 450.7 32.127 452.8 32.127C454.9 32.127 456.6 30.43 456.6 28.3336C456.6 26.2372 454.9 24.5402 452.8 24.5402Z" fill="url(#paint4_linear)" fill-opacity="0.6"/>
<path d="M568.6 28.8327C568.6 30.6296 567.1 32.127 565.3 32.127C563.5 32.127 562 30.6296 562 28.8327C562 27.0358 563.5 25.5384 565.3 25.5384C567.1 25.5384 568.6 27.0358 568.6 28.8327Z" fill="#9899F5"/>
<path d="M104.6 31.2943C104.6 33.0912 103.1 34.5886 101.3 34.5886C99.5 34.5886 98 33.0912 98 31.2943C98 29.4974 99.5 28 101.3 28C103.1 28 104.6 29.4974 104.6 31.2943Z" fill="#9899F5"/>
<path d="M1650.1 103.104L1644.7 97.9131L1649.9 92.5225L1647.2 89.9269L1642 95.3176L1636.7 90.1266L1634 92.8219L1639.4 98.0129L1634.2 103.304L1636.9 105.899L1642.1 100.608L1647.5 105.799L1650.1 103.104Z" fill="#9899F5"/>
<path d="M973.1 37.0186L965.5 37.1184L965.3 29.5315H961.5L961.6 37.2182L954 37.318V41.1115L961.7 41.0116L961.8 48.5985H965.7L965.5 41.0116L973.2 40.812L973.1 37.0186Z" fill="url(#paint5_linear)" fill-opacity="0.5"/>
<path d="M1549.1 13.487L1541.5 13.5869L1541.3 6H1537.5L1537.6 13.6867L1530 13.7865V17.5799L1537.7 17.4801L1537.8 25.067H1541.7L1541.5 17.4801L1549.2 17.2805L1549.1 13.487Z" fill="url(#paint6_linear)" fill-opacity="0.5"/>
<path d="M1094 19.6486L1107.1 32.726L1120.2 19.6486L1107.1 6.57128L1094 19.6486ZM1116.7 19.6486L1107.1 29.232L1097.5 19.6486L1107.1 10.0652L1116.7 19.6486Z" fill="#C7C8FA"/>
<path d="M117 338.077L130.1 351.155L143.2 338.077L130.1 325L117 338.077ZM139.7 338.077L130.1 347.661L120.5 338.077L130.1 328.494L139.7 338.077Z" fill="#C7C8FA"/>
<path d="M1648 173.382L1661.1 186.46L1674.2 173.382L1661.1 160.305L1648 173.382ZM1670.7 173.382L1661.1 182.966L1651.5 173.382L1661.1 163.799L1670.7 173.382Z" fill="url(#paint7_linear)" fill-opacity="0.6"/>
<path d="M1417.05 334L1403.95 322.42L1390.95 334L1377.55 322.121L1378.25 321.422L1390.95 332.702L1403.95 321.122L1417.05 332.702L1430.05 321.122L1443.45 333.002L1442.75 333.701L1430.05 322.42L1417.05 334Z" fill="#C7C8FA"/>
<path d="M1292.2 11.2805L1281 1.39759L1269.8 11.2805L1258.3 1.0981L1259 0.299484L1269.8 9.98271L1281 0L1292.2 9.98271L1303.4 0L1314.9 10.2822L1314.2 10.981L1303.4 1.39759L1292.2 11.2805Z" fill="#ECEDFD"/>
<path d="M1014.8 91.3245C1012.3 91.3245 1010.2 89.2281 1010.2 86.7324C1010.2 84.2367 1012.3 82.1404 1014.8 82.1404C1017.3 82.1404 1019.4 84.2367 1019.4 86.7324C1019.4 89.2281 1017.3 91.3245 1014.8 91.3245ZM1014.8 83.1386C1012.8 83.1386 1011.2 84.7359 1011.2 86.7324C1011.2 88.7289 1012.8 90.3262 1014.8 90.3262C1016.8 90.3262 1018.4 88.7289 1018.4 86.7324C1018.4 84.7359 1016.8 83.1386 1014.8 83.1386Z" fill="#9899F5"/>
<path d="M1388.8 38.1166C1386.1 38.1166 1384 35.9204 1384 33.3249C1384 30.6296 1386.2 28.5332 1388.8 28.5332C1391.4 28.5332 1393.6 30.7294 1393.6 33.3249C1393.6 36.0203 1391.4 38.1166 1388.8 38.1166ZM1388.8 29.5315C1386.7 29.5315 1385 31.2286 1385 33.3249C1385 35.4213 1386.7 37.1184 1388.8 37.1184C1390.9 37.1184 1392.6 35.4213 1392.6 33.3249C1392.6 31.2286 1390.9 29.5315 1388.8 29.5315Z" fill="url(#paint8_linear)" fill-opacity="0.6"/>
<path d="M1653.6 267.42C1653.6 269.216 1652.1 270.714 1650.3 270.714C1648.5 270.714 1647 269.216 1647 267.42C1647 265.623 1648.5 264.125 1650.3 264.125C1652.1 264.125 1653.6 265.623 1653.6 267.42Z" fill="url(#paint9_linear)" fill-opacity="0.6"/>
<path d="M390.1 330.228L384.7 325.037L389.9 319.647L387.2 317.051L382 322.442L376.7 317.251L374 319.946L379.4 325.137L374.2 330.428L376.9 333.123L382.1 327.733L387.4 332.924L390.1 330.228Z" fill="#4446ED" fill-opacity="0.5"/>
<defs>
<linearGradient id="paint0_linear" x1="641" y1="319.629" x2="648.464" y2="318.433" gradientUnits="userSpaceOnUse">
<stop stop-color="#4446ED"/>
<stop offset="1" stop-color="#AD29FF"/>
</linearGradient>
<linearGradient id="paint1_linear" x1="239" y1="24.0175" x2="265.2" y2="24.0175" gradientUnits="userSpaceOnUse">
<stop stop-color="#4446ED"/>
<stop offset="1" stop-color="#9616E5"/>
</linearGradient>
<linearGradient id="paint2_linear" x1="1549" y1="328.462" x2="1575.2" y2="328.462" gradientUnits="userSpaceOnUse">
<stop stop-color="#4446ED"/>
<stop offset="1" stop-color="#9616E5"/>
</linearGradient>
<linearGradient id="paint3_linear" x1="40" y1="210.195" x2="49.2" y2="210.195" gradientUnits="userSpaceOnUse">
<stop stop-color="#4446ED"/>
<stop offset="1" stop-color="#9616E5"/>
</linearGradient>
<linearGradient id="paint4_linear" x1="448" y1="26.6424" x2="457.6" y2="26.6424" gradientUnits="userSpaceOnUse">
<stop stop-color="#4446ED"/>
<stop offset="1" stop-color="#9616E5"/>
</linearGradient>
<linearGradient id="paint5_linear" x1="954" y1="35.7003" x2="973.2" y2="35.7003" gradientUnits="userSpaceOnUse">
<stop stop-color="#4446ED"/>
<stop offset="1" stop-color="#9616E5"/>
</linearGradient>
<linearGradient id="paint6_linear" x1="1530" y1="12.1687" x2="1549.2" y2="12.1687" gradientUnits="userSpaceOnUse">
<stop stop-color="#4446ED"/>
<stop offset="1" stop-color="#9616E5"/>
</linearGradient>
<linearGradient id="paint7_linear" x1="1648" y1="186.46" x2="1677.63" y2="181.711" gradientUnits="userSpaceOnUse">
<stop stop-color="#4446ED"/>
<stop offset="1" stop-color="#AD29FF"/>
</linearGradient>
<linearGradient id="paint8_linear" x1="1384" y1="38.1166" x2="1394.86" y2="36.3765" gradientUnits="userSpaceOnUse">
<stop stop-color="#4446ED"/>
<stop offset="1" stop-color="#AD29FF"/>
</linearGradient>
<linearGradient id="paint9_linear" x1="1647" y1="270.714" x2="1654.46" y2="269.518" gradientUnits="userSpaceOnUse">
<stop stop-color="#4446ED"/>
<stop offset="1" stop-color="#AD29FF"/>
</linearGradient>
</defs>
</svg>
