<svg width="36" height="36" viewBox="0 0 36 36" fill="none" xmlns="http://www.w3.org/2000/svg">
<circle cx="18" cy="18" r="16" fill="white"/>
<mask id="mask0_1_255" style="mask-type:alpha" maskUnits="userSpaceOnUse" x="2" y="2" width="32" height="32">
<circle cx="18" cy="18" r="16" fill="white"/>
</mask>
<g mask="url(#mask0_1_255)">
<path fill-rule="evenodd" clip-rule="evenodd" d="M2 34H34V2H2V34Z" fill="#A7A8FF"/>
<path fill-rule="evenodd" clip-rule="evenodd" d="M15.5009 30.8051C15.0428 30.8051 14.6679 31.18 14.6679 31.6381V34.1372H16.334V31.6381C16.334 31.18 15.9591 30.8051 15.5009 30.8051ZM20.499 30.8051C20.0409 30.8051 19.666 31.18 19.666 31.6381C19.666 32.0963 20.0409 32.4711 20.499 32.4711C20.9572 32.4711 21.332 32.0963 21.332 31.6381C21.332 31.18 20.9572 30.8051 20.499 30.8051ZM23.3938 24.2139C21.8371 25.2187 19.9888 25.807 18 25.807C16.0112 25.807 14.1629 25.2187 12.6062 24.2139C9.09194 24.5835 6.33777 27.5251 6.33777 31.1383V31.6381C6.33777 33.0178 7.45713 34.1372 8.83679 34.1372H13.0019V30.8051C13.0019 29.8836 13.7464 29.1391 14.6679 29.1391H21.332C22.2535 29.1391 22.9981 29.8836 22.9981 30.8051V34.1372H27.1632C28.5428 34.1372 29.6622 33.0178 29.6622 31.6381V31.1383C29.6622 27.5251 26.908 24.5835 23.3938 24.2139ZM15.5009 18.3099L16.1257 16.4356L18 15.8108L16.1257 15.186L15.5009 13.3118L14.8762 15.186L13.0019 15.8108L14.8762 16.4356L15.5009 18.3099ZM11.7523 14.5613C11.7523 13.4107 12.8718 12.4788 14.2514 12.4788H21.7486C23.1283 12.4788 24.2477 13.4107 24.2477 14.5613V15.8108C24.2477 18.5702 22.009 20.8089 19.2495 20.8089H16.7505C13.9911 20.8089 11.7523 18.5702 11.7523 15.8108V14.5613ZM9.66982 19.1429H10.3727C11.6587 22.0845 14.5846 24.141 18 24.141C21.4154 24.141 24.3413 22.0845 25.6273 19.1429H26.3302C26.7883 19.1429 27.1632 18.768 27.1632 18.3099V13.3118C27.1632 12.8536 26.7883 12.4788 26.3302 12.4788H25.6273C24.3413 9.53715 21.4154 7.48065 18 7.48065C14.5846 7.48065 11.6587 9.53715 10.3727 12.4788H9.66982C9.21165 12.4788 8.83679 12.8536 8.83679 13.3118V18.3099C8.83679 18.768 9.21165 19.1429 9.66982 19.1429Z" fill="white"/>
</g>
<circle cx="18" cy="18" r="17" stroke="white" stroke-width="2"/>
</svg>
